<?xml version="1.0" encoding="UTF-8" standalone="no"?>
<!DOCTYPE svg PUBLIC "-//W3C//DTD SVG 1.1//EN" "http://www.w3.org/Graphics/SVG/1.1/DTD/svg11.dtd">
<!-- Generated by Microsoft Visio, SVG Export 同济大学校徽_blue.svg Page-1 -->
<svg xmlns="http://www.w3.org/2000/svg" xmlns:xlink="http://www.w3.org/1999/xlink" xmlns:ev="http://www.w3.org/2001/xml-events"
		xmlns:v="http://schemas.microsoft.com/visio/2003/SVGExtensions/" width="13.3806in" height="13.4701in"
		viewBox="0 0 963.4 969.85" xml:space="preserve" color-interpolation-filters="sRGB" class="st2">
	<v:documentProperties v:langID="1033" v:viewMarkup="false"/>

	<style type="text/css">
	<![CDATA[
		.st1 {fill:#1a8cbd;stroke:none;stroke-linecap:butt;stroke-width:0.1}
		.st2 {fill:none;fill-rule:evenodd;font-size:12px;overflow:visible;stroke-linecap:square;stroke-miterlimit:3}
	]]>
	</style>

	<g v:mID="0" v:index="1" v:groupContext="foregroundPage">
		<title>Page-1</title>
		<v:pageProperties v:drawingScale="0.0393701" v:pageScale="0.0393701" v:drawingUnits="24" v:shadowOffsetX="9"
				v:shadowOffsetY="-9"/>
		<g id="group2-1" v:mID="2" v:groupContext="group">
			<title>Sheet.2</title>
			<g id="shape3-2" v:mID="3" v:groupContext="shape" transform="translate(0,969.9) scale(1,-1)">
				<title>Sheet.3</title>
				<path d="M449.8 969.65 C428.2 968.05 407.8 965.25 386.8 961.05 C375.5 958.85 361.3 955.55 356.8 954.15 C355.2 953.65
							 350 952.15 345.3 950.75 C328.7 946.15 303.2 936.75 287.3 929.45 C243.5 909.55 208.3 887.55 171.8 857.15
							 C160.6 847.75 131.3 818.95 120.6 806.75 C57.3 734.55 16.5 644.95 4.3 551.25 C0.9 525.15 0 507.35 0.6
							 476.75 C1.5 429.05 6.8 394.55 19.9 349.75 C57.2 221.85 147.8 113.45 267.3 53.95 C287.8 43.75 291.8 41.95
							 307.8 35.75 C333.4 25.95 349.5 21.05 380.3 13.85 C429.7 2.35 497.1 0.05 551.9 8.25 C631.7 20.05 705.8
							 51.15 770.8 100.15 C779.6 106.75 784.6 110.75 795.7 120.25 C814.4 136.15 841.3 164.05 857.4 184.25 C879.2
							 211.55 896.3 238.55 912.7 271.35 C946.5 339.05 963.3 410.35 963.3 486.75 C963.3 582.65 936.8 671.85
							 884.4 752.25 C846.9 809.75 794 861.45 734.8 898.45 C682.6 930.95 619.7 954.65 560.3 964.15 C556.7 964.65
							 552.1 965.45 550 965.75 C532.4 968.55 519.8 969.35 488.8 969.65 C470.1 969.85 452.6 969.85 449.8 969.65
							 ZM513.3 949.85 C532.7 948.35 535.9 948.05 548.3 946.15 C570.6 942.75 585.7 939.55 605.3 934.05 C623.5
							 928.95 649.3 919.85 662.1 914.15 C664.4 913.15 668.4 911.35 671.1 910.15 C734.2 882.05 795.8 834.25
							 840.7 778.25 C878.7 731.05 906.6 677.85 924.2 619.75 C944.6 552.05 948.8 476.35 936.2 405.25 C910.9
							 262.35 818.2 137.95 688.3 72.75 C681.4 69.25 673.8 65.55 671.3 64.45 C614.8 39.45 565.4 27.75 501.9
							 24.15 C443.2 20.95 375.9 31.65 318.8 53.55 C313.9 55.45 307.1 58.05 303.8 59.25 C286.3 65.95 247.7 86.95
							 226.1 101.35 C184.2 129.45 142.1 169.45 112.6 209.25 C61.6 278.25 32.2 354.25 22.7 442.25 C20.4 463.35
							 20.4 510.85 22.7 531.75 C29.4 593.25 43.6 642.65 69.3 694.05 C96.6 748.55 131.9 794.85 176.8 834.95
							 C268.5 916.65 391.7 958.75 513.3 949.85 Z" class="st1"/>
			</g>
			<g id="shape4-4" v:mID="4" v:groupContext="shape" transform="translate(353.2,1004.6) scale(1,-1)">
				<title>Sheet.4</title>
				<path d="M12.9 965.65 C8.6 962.15 2.7 949.35 2.7 943.55 C2.6 940.75 3.1 938.45 3.7 938.25 C4.8 937.85 5.9 938.95
							 13.5 947.55 C17.1 951.65 21.6 953.85 23.2 952.25 C23.6 951.85 23 948.05 22 943.95 C20.7 939.25 20.2
							 934.95 20.6 932.55 C21.7 925.05 17.2 923.75 12.1 930.05 C9.2 933.75 8.7 933.95 7.3 932.55 C5.1 930.35
							 5.4 925.35 7.9 922.65 C11.1 919.25 10.6 916.05 5.6 908.35 C1 901.45 0 896.65 1.7 890.15 C2.4 887.75
							 5.8 886.35 8.8 887.35 C13.2 888.75 18.1 902.95 18.1 914.15 C18.1 919.75 18.5 920.95 21.2 924.25 C22.9
							 926.25 24.7 927.95 25.2 927.95 C26.9 927.95 26.1 922.75 24 919.75 C22.2 917.35 22 916.35 23 914.35 C24.4
							 911.15 26.6 911.35 28.8 914.65 C30.2 916.75 30.6 919.45 30.6 927.15 C30.6 935.65 30.8 937.05 32.6 938.35
							 C35.1 940.25 36.1 940.35 36.1 938.75 C36.1 936.35 41.9 925.45 44.2 923.35 C49.5 918.75 52.7 920.05 51.5
							 926.35 C51 929.55 50.5 929.95 47.9 929.95 C45.3 929.95 44.7 930.65 42.1 936.15 L39.1 942.45 L42.1 945.25
							 C44.9 947.85 46.3 952.95 44.3 952.95 C43.9 952.95 40.2 949.55 36.2 945.45 C32.1 941.35 28.2 937.95 27.3
							 937.95 C24.8 937.95 26.5 945.55 30.5 951.55 C32.5 954.45 34.1 957.85 34.1 958.95 C34.1 960.85 33.7 960.95
							 28.6 960.35 C23.4 959.75 23.1 959.75 23.1 961.85 C23.1 967.95 17.9 969.85 12.9 965.65 Z" class="st1"/>
			</g>
			<g id="shape5-6" v:mID="5" v:groupContext="shape" transform="translate(399.1,1023.9) scale(1,-1)">
				<title>Sheet.5</title>
				<path d="M4 965.35 C2.6 963.75 1.2 960.45 0.8 958.15 C0 953.15 1.6 951.25 6.5 951.25 C8.1 951.25 13.5 950.75 18.3
							 950.05 C26.8 948.95 27.4 948.95 32.2 951.25 C36 953.05 37.2 954.15 37.2 955.85 C37.2 957.15 36.8 958.35
							 36.3 958.65 C35.8 959.05 31.2 958.75 26 958.15 C13.8 956.65 11.4 957.45 11 963.45 C10.6 968.95 7.7 969.85
							 4 965.35 Z" class="st1"/>
			</g>
			<g id="shape6-8" v:mID="6" v:groupContext="shape" transform="translate(332,1027.4) scale(1,-1)">
				<title>Sheet.6</title>
				<path d="M1.3 965.65 C0 962.65 0.1 962.35 3.1 959.65 C6.4 956.75 9.6 956.05 12.3 957.75 C13.5 958.45 13 959.55 9.7
							 963.45 C4.6 969.35 3 969.85 1.3 965.65 Z" class="st1"/>
			</g>
			<g id="shape7-10" v:mID="7" v:groupContext="shape" transform="translate(576.3,1037.5) scale(1,-1)">
				<title>Sheet.7</title>
				<path d="M57.4 966.45 C54.6 964.55 49.6 959.95 46.4 956.15 C38.3 946.85 38.3 946.85 36.7 946.85 C35.9 946.85 33.3
							 947.75 30.9 948.75 C28.5 949.85 23.9 950.95 20.8 951.35 C15.3 952.05 14.9 951.95 12 949.05 C10.2 947.25
							 9.2 945.35 9.6 944.55 C10.2 942.85 18.6 939.25 24.3 938.25 C26.3 937.95 28 937.35 28 936.95 C28 936.25
							 18.7 928.75 13.1 924.95 C5.8 920.05 0 914.65 0 912.75 C0 909.45 3.5 908.55 7.7 910.65 C9.8 911.75 14.4
							 913.65 18 914.85 C25.5 917.45 30.8 920.95 36.5 926.75 C38.6 929.05 41 930.85 41.6 930.85 C42.9 930.85
							 53.8 925.25 55.5 923.75 C56 923.25 57.3 922.85 58.5 922.85 C61.1 922.85 67.8 929.45 66.4 930.75 C65.9
							 931.15 61.8 932.85 57.2 934.35 C52.7 935.95 48.5 937.75 47.9 938.55 C47.1 939.45 49.8 942.85 59.4 952.55
							 C73.8 966.95 74.8 969.15 67 969.65 C63.3 969.85 61.6 969.35 57.4 966.45 Z" class="st1"/>
			</g>
			<g id="shape8-12" v:mID="8" v:groupContext="shape" transform="translate(335.3,1043.5) scale(1,-1)">
				<title>Sheet.8</title>
				<path d="M0.2 960.65 C0.4 955.25 0.9 951.35 1.5 951.45 C3.1 951.65 7 959.15 7 962.15 C7 964.95 3.2 969.85 1 969.85
							 C0.3 969.85 0 966.75 0.2 960.65 Z" class="st1"/>
			</g>
			<g id="shape9-14" v:mID="9" v:groupContext="shape" transform="translate(375.2,1055.8) scale(1,-1)">
				<title>Sheet.9</title>
				<path d="M27.4 966.95 C26.1 965.55 25 962.55 24.6 959.65 C23.3 950.15 22.4 949.05 20 954.35 C18 959.05 16 958.85
							 12.6 953.65 C11 951.15 9.1 949.15 8.5 949.15 C7.9 949.15 6.9 950.95 6.2 953.15 C4.8 957.75 3.6 958.75
							 1.4 957.05 C0.2 955.95 0 954.45 0.5 949.15 C1.8 934.35 5.6 923.05 9.4 922.35 C11.5 921.95 11.6 924.95
							 9.9 935.05 C8.9 940.75 9 942.25 10.1 943.65 C12.4 946.45 15.2 945.05 17 940.15 C19.9 932.15 21.9 934.05
							 26.7 949.55 C28.3 954.35 30.2 958.65 31 958.95 C33.3 959.85 36.8 954.65 38.1 948.65 C38.8 945.05 39
							 939.95 38.6 934.55 C38 927.35 38.1 926.15 39.4 926.15 C41.3 926.15 41.7 927.45 43.1 937.95 C45 951.95
							 42.9 961.65 36.9 966.65 C33.2 969.75 30.1 969.85 27.4 966.95 Z" class="st1"/>
			</g>
			<g id="shape10-16" v:mID="10" v:groupContext="shape" transform="translate(115,1063.9) scale(1,-1)">
				<title>Sheet.10</title>
				<path d="M220 968.55 C219.7 968.05 220.6 963.75 221.9 958.75 C223.2 953.85 225 942.55 225.9 933.75 C227.7 916.45
							 229 912.35 234.2 907.95 L237.2 905.45 L231.5 903.15 C223.2 899.75 207.3 891.85 195.8 885.45 C151.9 860.65
							 111 823.25 81.4 780.95 C14.2 684.55 0 560.05 43.8 450.65 C76.1 370.15 137 304.45 214.9 266.25 C284.4
							 232.25 363 222.65 439.8 238.75 C457.9 242.55 476.3 248.25 496.6 256.35 C507.9 260.85 530.1 271.75 540.9
							 277.95 C547.8 282.05 571.4 297.75 575 300.65 C576 301.45 580.6 305.15 585.3 308.95 C622.2 338.45 654.6
							 378.75 676.9 422.75 C696.8 462.15 707.7 498.75 712.9 543.75 C714.8 560.55 715.1 597.55 713.4 614.25
							 C707.5 671.75 689.2 724.05 658.6 771.15 C590.5 875.95 473.4 936.25 350 930.15 C330.4 929.15 317.1 927.45
							 295.3 923.25 C282.6 920.85 257 913.25 244.5 908.35 C241.6 907.15 239.1 906.25 238.9 906.25 C238.7 906.25
							 238.3 909.05 238 912.55 C237.6 915.95 236.4 922.85 235.3 927.75 C234.2 932.75 233.3 939.15 233.3 942.05
							 C233.3 946.15 232.3 949.25 228.9 956.55 C226.5 961.55 224.3 966.55 224 967.55 C223.4 969.25 220.8 969.85
							 220 968.55 ZM389 916.25 C453 911.25 509.6 891.05 559.3 855.65 C638.3 799.35 687.9 714.85 699.4 616.75
							 C701.1 602.55 701.1 560.15 699.4 545.25 C686.5 430.15 617.9 331.15 515.4 279.75 C487.4 265.75 455 255.05
							 424.8 249.75 C391.8 244.05 345.7 243.65 314.3 248.85 C280.5 254.45 247.7 264.95 218.3 279.75 C165.5
							 306.25 121.6 345.15 88.9 394.25 C39 469.15 21.4 559.45 39.2 648.75 C57.9 742.35 118.5 825.95 202.3 873.55
							 C258.6 905.45 326.9 921.15 389 916.25 Z" class="st1"/>
			</g>
			<g id="shape11-18" v:mID="11" v:groupContext="shape" transform="translate(481.1,1155.5) scale(1,-1)">
				<title>Sheet.11</title>
				<path d="M17.2 968.35 C9.5 964.85 4.9 958.15 3.2 947.75 C0 927.65 5.9 917.65 23 913.95 C30.2 912.45 33.9 912.55 40.2
							 914.45 C50.2 917.45 55 925.85 55.9 941.95 C56.5 952.05 55.4 956.25 50.9 961.15 C45.6 966.85 40 969.05
							 29.7 969.55 C23 969.85 19.8 969.55 17.2 968.35 ZM33.4 959.85 C38.4 958.45 39.6 955.85 39.4 946.85 C39.1
							 931.75 36.4 924.25 30.7 922.75 C26.9 921.65 21.5 924.05 20.2 927.35 C18.3 932.35 19.6 949.75 22.4 955.55
							 C23.1 957.05 24.8 958.85 26.2 959.55 C29.2 961.05 28.9 961.05 33.4 959.85 Z" class="st1"/>
			</g>
			<g id="shape12-20" v:mID="12" v:groupContext="shape" transform="translate(411.6,1154.8) scale(1,-1)">
				<title>Sheet.12</title>
				<path d="M21.7 966.75 C11.5 963.95 6.1 959.75 3 952.15 C0 945.05 3.8 936.65 12.1 932.45 C16.4 930.25 18.5 929.85
							 25.1 929.95 C32 929.95 33.5 930.35 37.8 933.05 L42.8 936.15 L42.1 930.85 C41.3 923.75 37.6 920.15 31.1
							 920.15 C27.6 920.15 26.1 920.65 24.5 922.45 C22.4 924.75 22.4 924.85 15.1 923.25 C11 922.45 7.7 921.25
							 7.7 920.65 C7.7 920.05 9 917.95 10.7 916.05 C18.6 906.35 41.3 908.75 52.7 920.35 C57.3 925.15 58.7 929.15
							 58.7 938.25 C58.7 948.15 56.4 954.55 50.8 960.15 C43.4 967.55 33.1 969.85 21.7 966.75 ZM37 954.15 C40.2
							 950.55 40.4 947.85 37.7 943.45 C34.4 937.95 25.2 936.65 20.8 941.05 C18.5 943.35 17.3 950.55 18.8 953.25
							 C19.4 954.35 21.7 956.15 23.9 957.15 C29 959.35 33.1 958.45 37 954.15 Z" class="st1"/>
			</g>
			<g id="shape13-22" v:mID="13" v:groupContext="shape" transform="translate(551.2,1165.6) scale(1,-1)">
				<title>Sheet.13</title>
				<path d="M7.9 966.85 C6.9 965.15 6.1 963.25 6.1 962.65 C6.1 961.95 11 959.45 16.9 957.05 C33.5 950.15 37.1 948.45
							 37.1 947.85 C37.1 947.55 34.5 946.25 31.4 944.95 C19.4 940.05 7.9 930.25 2.3 920.15 L0 916.05 L3.3 914.65
							 C13.1 910.55 14.3 910.35 15.5 912.35 C16.1 913.35 18.1 916.55 19.9 919.35 C25 927.25 40.6 938.05 52.4
							 941.95 C56 943.05 60.1 947.65 60.1 950.55 C60.1 951.15 50.8 955.15 39.4 959.35 C27.9 963.55 17.9 967.35
							 17.1 967.85 C16.2 968.35 14.2 968.95 12.6 969.35 C10 969.85 9.4 969.55 7.9 966.85 Z" class="st1"/>
			</g>
			<g id="shape14-24" v:mID="14" v:groupContext="shape" transform="translate(352.2,1173.2) scale(1,-1)">
				<title>Sheet.14</title>
				<path d="M21.9 968.15 C16.4 966.15 16.1 965.95 14 960.35 C12.5 956.25 10.3 953.05 5.9 948.75 L0 942.95 L1.6 938.75
							 C2.6 936.45 3.8 934.55 4.4 934.55 C4.9 934.55 8.5 937.85 12.4 941.85 C16.2 945.75 19.6 948.65 19.8 948.05
							 C22.2 941.65 35.2 914.05 36 913.75 C37.5 913.25 49.1 918.75 49.1 919.95 C49.1 921.15 29.9 966.45 28.4
							 968.75 C27.8 969.85 26.5 969.75 21.9 968.15 Z" class="st1"/>
			</g>
			<g id="shape15-26" v:mID="15" v:groupContext="shape" transform="translate(207.7,1218.1) scale(1,-1)">
				<title>Sheet.15</title>
				<path d="M397.6 967.95 C397.6 966.45 403.2 962.45 408.4 960.15 C432.4 949.85 477.5 898.65 496.8 859.95 C501.8 849.95
							 508.6 832.55 508.6 829.75 C508.6 828.65 506.1 826.45 502.4 824.05 C489.8 816.05 481.2 806.55 474.7 793.75
							 C466.3 777.05 464.5 754.15 464.4 665.45 L464.4 606.95 L462 613.45 C455.1 631.75 450.5 639.35 447.1 638.05
							 C446.3 637.75 439 637.25 430.9 636.85 L416.3 636.15 L416.9 646.55 C417.4 654.45 419.2 663.75 424.3 684.85
							 L431.1 712.75 L435.1 715.65 C442.7 721.15 444.5 728.15 440.1 734.65 C438.7 736.65 437.6 739.15 437.6
							 740.15 C437.6 743.85 455 799.25 458.1 805.45 C458.8 806.95 462.1 809.35 466.2 811.45 C474.5 815.75 476
							 817.85 472.8 820.45 C469 823.55 459.8 825.85 451.1 825.75 C444.2 825.75 442 825.25 434.6 822.05 C430
							 820.05 426.1 818.45 426 818.45 C425.9 818.45 422.6 822.95 418.6 828.55 C410.4 840.05 406.5 843.15 396.1
							 846.95 C386.1 850.65 378.8 850.05 373.8 845.15 C367.4 839.05 367.4 833.85 373.7 829.85 C375.9 828.55
							 382.8 826.05 389.1 824.45 C400.3 821.55 414.9 814.95 414.3 813.05 C414.1 812.55 412.7 811.45 411 810.55
							 C400.1 804.65 381.5 791.25 374.2 784.05 C369.3 779.15 360 763.45 347.9 739.45 C328.1 700.35 322.8 685.95
							 320.5 663.95 C318.3 642.75 322.9 610.95 329.9 599.45 C331.1 597.55 335 592.15 338.7 587.45 C350.5 572.45
							 353.3 565.05 349.8 557.25 C347.4 551.75 338.4 540.95 334.6 538.95 C331.8 537.55 331.6 537.55 330.2 539.65
							 C328.7 541.95 326.3 551.45 321.1 574.55 L318.5 586.25 L312.3 592.15 C305.4 598.75 297.2 604.75 284.6
							 612.45 C279.9 615.35 275.7 618.15 275.3 618.85 C273.1 621.95 276.6 641.15 285.2 672.95 C288.1 683.95
							 291 696.25 291.6 700.35 C292.7 708.05 293.8 710.45 296.3 710.45 C297.1 710.45 298.8 711.55 300.1 712.95
							 C303 715.75 303.3 719.45 301.2 727.45 L299.7 732.95 L305.7 752.45 C312 772.65 314.6 780.65 320.2 795.95
							 C324.4 807.15 327.3 810.15 337.6 813.45 C345.7 816.05 346.9 816.85 346 819.95 C343.9 826.75 333.7 829.85
							 312.6 829.85 C300 829.95 298.5 829.75 289.6 826.75 C283.7 824.75 276.3 823.15 270.1 822.55 C258.5 821.35
							 257.6 821.65 252.5 829.15 C241.3 845.55 234.1 851.45 225.3 851.45 C218.2 851.45 213.4 843.75 215 835.05
							 C215.9 830.25 218.5 828.45 227.3 826.35 C237.5 823.95 240.3 822.75 242.6 819.65 C246.9 814.25 245.3
							 810.55 231.7 793.55 C210.3 767.05 210.8 767.75 200.5 744.35 C184.5 707.95 183.2 703.15 183.2 682.95
							 C183.3 670.05 183.5 668.25 186.4 659.75 C190.7 647.15 198 631.05 206.4 615.75 C213.7 602.45 216.6 593.45
							 216.6 584.05 C216.6 577.75 214.3 576.45 201.4 575.15 L191.3 574.15 L189 576.75 C186.2 580.05 184.9 584.35
							 183.4 595.25 C182.2 604.15 180.3 608.15 175.3 611.85 C172.8 613.75 170.7 614.05 156.3 614.45 L140.1
							 614.95 L139.8 618.65 C139.4 622.95 147.6 657.15 154.2 678.95 C156.7 687.25 159.6 697.15 160.8 700.95
							 C163.3 709.45 163.9 710.25 168.3 711.05 C170.7 711.55 172 712.45 172.7 714.15 C174.7 719.35 173.2 726.45
							 170.1 726.45 C169.2 726.45 168.6 727.35 168.6 728.55 C168.6 731.55 187.8 788.75 189 789.65 C189.6 790.05
							 192.1 790.45 194.6 790.45 C200.9 790.45 203.6 792.55 203.6 797.45 C203.6 802.75 200.4 806.35 194.6 807.55
							 C192.1 807.95 182.9 808.35 174.1 808.45 C165.3 808.45 155.1 808.75 151.3 809.15 C142.8 809.95 140.4
							 812.05 138.6 820.55 C137.1 827.55 134.9 830.75 129.5 833.45 C119.3 838.65 111.6 836.25 111.6 827.95
							 C111.6 820.55 113 818.75 123.8 812.15 C127.5 809.85 129.5 803.45 127.5 799.85 C126.8 798.35 120.5 791.95
							 113.6 785.65 C90.2 764.05 72 745.25 69.4 739.95 C66.1 733.45 61.4 718.55 58.4 705.45 C56.5 696.65 56.1
							 692.25 56.1 678.45 C56.2 663.85 56.5 660.85 58.8 652.15 C61.8 641.25 65.7 632.95 71.5 625.05 C77 617.65
							 83 612.75 93.6 606.95 C104.3 601.05 107.4 598.95 106.3 597.85 C105.9 597.45 99.8 596.75 92.8 596.25
							 C82.1 595.45 79 594.85 73.3 592.35 C69.6 590.75 65.9 589.45 65 589.45 C60.8 589.45 48.1 601.45 40.6
							 612.45 C26.8 632.75 26.8 645.15 40.3 692.95 L46 712.95 L45.8 729.45 C45.7 738.55 44.4 761.65 43 780.85
							 C41.6 800.15 40.7 817.25 41 818.95 C41.7 822.35 46.3 827.35 51.2 829.75 C52.9 830.65 57.3 831.85 60.9
							 832.55 C69.9 834.25 76.7 832.55 86.3 826.25 C97 819.25 100.6 820.05 100.6 829.25 C100.6 837.35 89.5
							 852.85 80.9 856.95 C78.9 857.95 74.4 859.55 70.8 860.55 C64.1 862.45 60.6 864.75 60.6 867.15 C60.6 867.85
							 62.7 869.95 65.3 871.75 C72.9 876.95 79.4 883.35 81.6 887.85 C85.7 896.35 83.1 909.65 76 916.85 C69.4
							 923.45 50.8 928.85 47.7 925.05 C46.5 923.65 47 922.15 51 914.15 C56.1 903.95 56.8 899.05 54.1 891.35
							 C51.8 884.95 48.5 881.15 37.8 873.05 C23.5 862.15 11.9 850.35 8.7 843.55 C6.3 838.35 6.1 837.05 6.1
							 823.45 C6.1 814.85 6.9 802.65 8.1 793.45 C9.8 780.35 10.1 771.95 10.1 738.95 C10.1 697.15 9.9 694.05
							 4.3 664.45 C0.5 644.15 0 624.25 3 613.45 C7.3 597.85 15 584.05 31.5 561.95 C37.3 554.25 43 546.85 44.2
							 545.45 C45.4 544.05 51.7 536.65 58.3 528.95 C64.9 521.25 73.5 511.35 77.5 506.95 C81.4 502.65 84.6 498.45
							 84.6 497.75 C84.6 497.05 83.5 493.65 82.1 490.25 C78.5 481.35 78.7 478.75 83.2 476.85 C86.7 475.35 87
							 475.45 89.3 477.65 C90.7 478.95 92.8 482.25 94.1 485.05 C95.4 487.85 96.8 490.45 97.4 490.85 C98 491.15
							 102.6 488.75 107.8 485.45 C118.4 478.55 138.6 468.05 149.6 463.65 C162.4 458.55 175.2 455.65 190.1 454.45
							 C205.5 453.15 211.5 451.95 212.2 450.15 C212.4 449.45 211.5 445.35 210.1 440.95 C208.7 436.55 207.6
							 432.45 207.6 431.75 C207.6 429.95 211.7 427.45 214.7 427.45 C219.1 427.45 220.6 430.25 224.8 445.95
							 L226.2 450.95 L237.1 450.45 C243.2 450.15 271 449.95 298.9 449.95 C349.2 449.95 349.7 449.95 349.3 447.95
							 C345.5 432.15 345.6 431.45 351.9 431.45 C358.3 431.45 360.5 434.25 362.3 444.65 C363.1 449.25 364.1
							 453.35 364.6 453.85 C365.1 454.35 369.3 455.55 374 456.45 C378.7 457.45 384.9 459.05 387.8 459.95 C394.3
							 462.15 415.5 471.35 417.6 472.95 C418.4 473.55 423.8 476.75 429.5 479.95 C446.4 489.35 457.3 498.45
							 482.7 524.15 C515.1 556.95 519.2 563.65 531.1 602.45 C535.8 617.85 535.9 617.95 535.3 628.95 C534.9
							 637.05 534 642.55 531.8 649.95 C530.2 655.45 526.3 668.55 523.2 678.95 C515.7 703.75 507 738.75 505.6
							 749.45 C504.1 760.75 505 767.65 508.9 774.25 C511.6 778.65 512.5 779.45 515.1 779.45 C519.9 779.45 524.1
							 776.25 526.1 770.95 C527.7 766.75 527.8 764.35 527 745.15 C525.6 710.45 526.1 702.45 529.6 702.45 C531.6
							 702.45 536.6 710.85 539 718.25 C542.6 729.45 543.5 735.05 544.6 753.55 C545.6 770.45 548.6 788.55 551.2
							 793.55 C555 800.95 550.6 823.65 541.1 844.95 C539 849.75 528.7 865.75 526.7 867.45 C526.3 867.75 524.5
							 869.95 522.6 872.45 C501.6 899.95 467.2 934.55 446.6 948.85 C433.5 958.05 419.7 964.65 406.8 968.05
							 C400 969.85 397.6 969.85 397.6 967.95 ZM305.5 815.35 L308.9 813.35 L308.3 806.05 C307.9 801.45 305.9
							 793.55 303.1 784.85 C300.6 777.15 296.7 763.95 294.4 755.45 C289 734.45 285.9 724.95 284.1 723.45 C281.7
							 721.45 270.1 723.05 263.6 726.25 C257 729.55 252.2 735.95 245.6 750.95 C241.5 760.05 241.1 761.65 241.1
							 768.95 C241.1 779.75 244.1 786.25 253.5 795.55 C262.5 804.35 268.2 807.55 284.1 812.55 C291.3 814.75
							 297.6 816.75 298.1 816.95 C300.4 817.75 302.3 817.35 305.5 815.35 ZM442.6 810.35 C444.2 807.45 443.8
							 804.35 440.1 792.85 C433.8 773.45 431.7 766.25 428.6 751.75 C424.9 734.55 423.4 730.65 420 729.45 C415.4
							 727.65 410.3 728.25 406.1 731.15 C396.5 737.55 393.5 744.25 393.3 759.65 C393.1 769.25 393.3 770.35
							 396.1 775.85 C401.7 786.85 419.6 803.65 432.9 810.45 C438.9 813.45 441 813.45 442.6 810.35 ZM511.8 807.75
							 C514.1 805.65 514.1 800.15 511.7 794.95 C510.1 791.25 507.3 788.35 499 781.45 C494.3 777.55 491.7 773.55
							 490 767.75 C488.4 762.25 486.1 760.05 484.5 762.55 C482.4 765.95 483.9 781.15 486.6 783.45 C487 783.75
							 488.7 786.55 490.5 789.65 C496.4 800.15 504.9 809.25 509 809.45 C509.5 809.45 510.8 808.75 511.8 807.75
							 ZM177.4 796.05 C177.9 792.05 176.7 787.55 167.5 759.65 C163.2 746.35 159.6 734.15 159.6 732.55 C159.6
							 724.75 156.1 721.45 147.7 721.45 C138.4 721.45 132.2 725.65 126.3 736.05 C124.4 739.25 121.2 744.65
							 119.2 747.85 C115 754.85 114.6 759.65 117.4 767.25 C120.7 775.75 125.2 781.15 133.9 786.95 C145 794.35
							 162.2 799.55 173.6 799.15 C176.7 798.95 177.1 798.55 177.4 796.05 ZM104.6 736.45 C105.7 735.85 110.4
							 730.85 115.2 725.35 C120 719.75 126 713.95 128.5 712.35 C132.6 709.75 133.8 709.45 141.9 709.45 L150.8
							 709.45 L150.1 704.75 C149 697.25 143.9 678.05 139.6 665.45 C137.4 659.15 134 647.85 132 640.45 C127.7
							 624.35 126.4 621.45 123.2 621.45 C119.9 621.45 110 628.15 103.3 635.05 C96.9 641.55 89.4 654.25 86.5
							 663.55 C83.4 673.45 82.3 686.15 83.6 696.75 C84.2 701.75 85.1 709.45 85.6 713.65 C87.3 728.55 88.8 731.35
							 97 735.45 C101.7 737.75 102.1 737.85 104.6 736.45 ZM226.9 732.25 C229.4 730.45 235.8 725.15 241.1 720.45
							 C246.3 715.75 252.1 711.45 253.9 710.75 C255.6 710.15 260.5 709.55 264.6 709.45 C274.4 709.15 277 708.45
							 277.4 705.55 C278 701.45 271 663.25 266.1 643.95 C262.9 631.35 261.2 627.45 258.6 627.45 C251.5 627.45
							 234.6 640.25 226.9 651.55 C222.6 657.75 214.7 673.75 212.6 680.55 C209 691.75 209.1 704.05 212.8 720.95
							 C214.5 728.75 218.3 735.45 221.1 735.45 C221.8 735.45 224.4 733.95 226.9 732.25 ZM379.2 729.75 C380.9
							 728.45 382.6 727.45 383 727.45 C383.4 727.45 387.6 724.75 392.4 721.55 C405.2 712.85 407.6 711.85 413.1
							 713.15 L417.7 714.15 L417.2 711.55 C416.9 710.15 416 704.45 415.1 698.95 C414.2 693.45 412.9 686.05
							 412.1 682.45 C411.3 678.85 410 671.25 409.1 665.45 C406.4 647.35 405.3 642.05 403.5 637.85 C402 634.25
							 401.2 633.55 397.3 632.55 C391.6 631.15 388.2 631.15 381.4 632.55 C370.9 634.65 368.6 635.75 364.2 640.45
							 C355.5 649.75 353.6 663.55 358.1 685.75 C362 705.05 369.1 728.05 372.3 731.65 C374 733.55 374.4 733.45
							 379.2 729.75 ZM496.9 690.95 C505 665.55 507.8 641.35 505.8 613.95 C504.6 597.95 503 590.95 498.1 580.75
							 C491 565.65 475.7 546.85 468.4 544.15 C464.6 542.75 466.4 547.45 475.2 561.45 C478.1 566.15 481.7 572.85
							 483.2 576.45 C484.7 580.05 486.7 584.75 487.7 586.95 C488.7 589.15 490.5 595.65 491.6 601.45 C493.7
							 611.55 493.8 613.45 493.1 655.95 C492.5 694.35 492.6 699.65 493.9 697.95 C494.7 696.85 496 693.75 496.9
							 690.95 ZM446.3 618.05 C451.4 613.75 459.6 593.85 461.2 581.65 C462 575.65 459.5 567.45 453.3 554.55
							 C447.8 543.35 440.3 535.85 423.5 524.65 C412.2 517.15 395.9 510.25 388.6 510.05 C385.4 509.95 385.1
							 510.25 384.2 513.95 C383 519.05 384.6 528.95 389 544.25 C390.8 550.65 394 563.15 396.1 571.95 C400.6
							 591.75 405 605.95 407.8 610.05 C410.9 614.55 423.1 618.75 436.1 619.75 C438.3 619.95 440.9 620.15 441.8
							 620.25 C442.7 620.35 444.7 619.35 446.3 618.05 ZM390.1 611.85 C393.5 609.65 393.8 606.95 391.7 596.45
							 C390.6 591.25 389.5 585.35 389.2 583.35 C388.5 579.05 382.9 571.45 380.5 571.45 C376.9 571.45 368.7
							 584.45 366.7 593.25 C364.1 605.15 373 615.45 384.5 613.85 C386.4 613.55 388.9 612.65 390.1 611.85 ZM253.1
							 602.05 L257 598.75 L255.3 591.35 C254.4 587.25 253.6 582.35 253.5 580.45 C253.5 575.55 250.4 568.05
							 248.3 567.65 C245 567.05 243.5 573.45 240.9 598.65 C240.6 601.75 240.6 605.45 241 606.95 L241.7 609.55
							 L245.4 607.45 C247.4 606.25 250.9 603.85 253.1 602.05 ZM152.7 601.35 C165.1 599.75 165.9 598.95 170.9
							 584.45 C174.3 574.45 175.9 566.05 175.1 562.45 C174.2 558.25 161 540.95 153 533.45 C141.1 522.35 137.5
							 521.25 131 526.85 C128.9 528.65 124.2 531.65 120.7 533.35 L114.4 536.65 L114.8 540.75 C115.1 543.05
							 117.4 551.65 120 559.75 L124.7 574.55 L130.7 573.85 C135.6 573.35 137 573.45 138.6 574.95 C141.4 577.55
							 141.1 579.65 136.5 589.55 C134.3 594.45 132.8 598.95 133.1 599.55 C135 602.45 140.2 602.95 152.7 601.35
							 ZM284 589.05 C297.6 580.95 300.6 576.95 302.1 565.45 C303.1 557.15 305.2 550.35 310 540.15 C315.9 527.65
							 316 527.25 313.7 522.75 C311.7 518.75 301.8 508.55 295.1 503.45 C288.3 498.35 269.4 493.45 256.3 493.45
							 C250.6 493.45 249.1 493.85 247.1 495.75 C241.5 500.95 241.3 506.55 246.5 522.75 C248.6 529.45 252.2
							 540.95 254.5 548.25 C256.8 555.45 260 566.95 261.5 573.75 C264.8 587.65 265.8 590.45 268.1 592.75 C270.9
							 595.55 274.5 594.65 284 589.05 ZM104 581.55 C107.7 581.05 111.3 580.15 111.8 579.65 C114.1 577.35 105.6
							 551.15 102.3 549.85 C99.9 548.95 92 553.35 86.7 558.55 C82 563.15 74.6 576.15 74.6 579.75 C74.6 583.45
							 85.7 584.15 104 581.55 ZM214.1 555.35 C219 553.15 224.8 550.05 227 548.65 C229.3 547.15 232 545.45 233.1
							 544.85 C236.9 542.75 238 538.75 236.7 531.65 C234.9 522.05 229.9 507.05 227.8 505.15 C226.8 504.15 224.6
							 503.45 222.9 503.45 C218.6 503.45 215.8 507.15 211.6 518.05 C209.8 522.95 205.8 533.25 202.9 540.85
							 L197.5 554.75 L199.7 557.05 C201 558.35 202.7 559.45 203.6 559.45 C204.6 559.45 209.3 557.65 214.1 555.35
							 ZM379.1 545.95 C379 540.05 370.4 508.75 367.3 502.95 C365.3 499.35 364.6 498.95 360.8 498.65 C351.6
							 497.95 340.6 504.25 338.6 511.25 C337.1 516.85 337.4 522.65 339.5 525.95 C340.5 527.65 348.4 534.05
							 357.2 540.25 C370.2 549.45 373.7 551.45 376.1 551.25 C379 550.95 379.1 550.75 379.1 545.95 ZM185.9 538.75
							 C186.7 537.75 188.6 533.55 190 529.45 C191.4 525.35 194.1 518.85 196 515.15 C200.3 506.85 200.5 504.75
							 197 503.85 C194.6 503.25 191.4 503.45 174.6 505.35 C161.8 506.75 160.4 509.65 166.5 521.95 C169.6 528.25
							 172.1 531.55 176.3 535.35 C182.6 540.95 183.5 541.25 185.9 538.75 ZM323.7 507.45 C326.8 505.75 325.8
							 497.65 322.2 495.15 C319.8 493.55 310.3 491.35 308 491.85 C304.7 492.75 305 494.85 309.3 500.65 C314.1
							 507.25 319.4 509.75 323.7 507.45 Z" class="st1"/>
			</g>
			<g id="shape16-28" v:mID="16" v:groupContext="shape" transform="translate(615.4,1092.5) scale(1,-1)">
				<title>Sheet.16</title>
				<path d="M2.5 966.55 C0.1 963.35 0 963.15 1.3 957.55 C2.6 951.95 7.1 943.85 8.8 943.85 C10.2 943.85 15.9 951.05 16.5
							 953.55 C17.4 956.85 8.7 969.85 5.8 969.85 C5.3 969.85 3.9 968.35 2.5 966.55 Z" class="st1"/>
			</g>
			<g id="shape17-30" v:mID="17" v:groupContext="shape" transform="translate(122.3,1149.6) scale(1,-1)">
				<title>Sheet.17</title>
				<path d="M30.6 966.35 C28.9 964.55 28 962.65 28 960.45 C28 956.55 24.4 951.75 16.5 945.15 C13.2 942.45 9.4 939.05
							 8.1 937.55 C6.7 936.15 5.1 934.95 4.4 934.95 C3.6 934.95 2.3 933.55 1.5 931.95 C0 929.15 0.1 928.55
							 1.8 924.65 C4.7 918.05 14.4 906.75 30.1 891.35 C50.4 871.45 51 870.95 55.9 870.95 C59 870.95 60 871.35
							 60 872.65 C60 873.55 55.8 878.35 50.8 883.45 C41.4 892.75 22.3 914.35 18.9 919.65 C16.7 922.95 16.4
							 928.25 18.4 929.85 C19.2 930.55 23.1 936.05 27.1 942.15 C39.9 961.75 42.4 961.55 65.5 939.95 C74 931.95
							 77.9 927.55 79 924.75 C80.4 921.05 80.4 920.65 78.7 919.45 C77.4 918.55 77 917.15 77.2 914.75 C77.4
							 912.05 78.2 911.05 81.5 909.25 C83.7 908.05 86.6 907.05 87.9 907.05 C90 906.95 90.2 907.35 89.8 910.25
							 C88.8 917.05 84.7 929.65 81.9 934.65 C77.1 943.15 53.6 963.65 44.2 967.55 C38.7 969.85 33.7 969.35 30.6
							 966.35 Z" class="st1"/>
			</g>
			<g id="shape18-32" v:mID="18" v:groupContext="shape" transform="translate(775.3,1152.3) scale(1,-1)">
				<title>Sheet.18</title>
				<path d="M46 966.65 C44.1 965.65 39.4 962.05 35.5 958.75 C31.7 955.35 28.1 952.65 27.7 952.65 C27.2 952.65 26.1 954.45
							 25.3 956.65 C22.9 962.75 19.7 962.85 12.7 957.05 C11.2 955.75 7.7 953.55 4.9 952.05 C1.1 949.95 0 948.75
							 0.2 947.25 C0.6 944.45 6.8 943.85 11.3 946.15 L14.5 947.75 L31.2 930.65 C47 914.65 50.9 909.45 48.2
							 907.75 C46 906.45 46.6 904.75 50.4 901.75 C54.7 898.35 59.3 897.65 62.5 900.05 C64.4 901.45 64.4 901.55
							 62.3 905.85 C61 908.15 56.9 913.45 53 917.55 C49.2 921.55 46 925.25 46 925.65 C46 926.05 47.7 926.75
							 49.7 927.15 C52.8 927.75 53.6 927.45 55.1 925.45 C56.8 923.25 57.4 923.15 66.2 923.45 C77.4 923.85 80.4
							 924.85 82.1 928.85 C84.2 934.05 82.5 936.65 74 940.95 C68.3 943.85 66.5 945.25 66.5 946.85 C66.5 948.05
							 65.6 949.25 64.3 949.75 C61.7 950.75 60.8 952.05 60.6 955.65 C60.3 959.65 60 959.75 54.6 959.05 C51
							 958.55 49.6 957.75 48.8 956.15 C48.3 954.95 46.3 953.45 44.5 952.75 C41.7 951.75 36 946.05 36 944.25
							 C36 942.95 40.8 943.75 44.6 945.55 C46.8 946.65 50.2 947.75 52.3 948.15 C55.3 948.75 56 948.55 56 947.25
							 C56 946.25 55.1 945.65 53.7 945.65 C49.7 945.65 42 942.55 40.5 940.35 C38.2 937.05 40.6 935.45 49 934.85
							 C55.2 934.45 56.5 934.65 59 936.55 C62.9 939.35 66.2 939.25 70 936.05 C73.2 933.25 73.1 932.35 69.3
							 931.15 C67.4 930.65 66.8 931.05 66 933.05 L65 935.65 L59.8 933.65 C56.9 932.55 51.3 931.35 47.5 931.05
							 L40.5 930.35 L34.7 937.55 C31.6 941.45 29 945.35 29 946.15 C29 947.75 34.1 951.45 45.3 957.65 C50.4
							 960.65 53.3 962.85 53.6 964.35 C54.8 968.95 51.9 969.85 46 966.65 Z" class="st1"/>
			</g>
			<g id="shape19-34" v:mID="19" v:groupContext="shape" transform="translate(150.5,1181.7) scale(1,-1)">
				<title>Sheet.19</title>
				<path d="M4.2 965.55 C0.8 961.85 0 958.85 1.8 956.05 C2.6 954.75 3.4 954.85 7.5 957.05 C13.6 960.35 14.8 962.25 12.8
							 965.85 C10.5 969.85 8.2 969.75 4.2 965.55 Z" class="st1"/>
			</g>
			<g id="shape20-36" v:mID="20" v:groupContext="shape" transform="translate(752.3,1189) scale(1,-1)">
				<title>Sheet.20</title>
				<path d="M33.2 965.85 C32 964.45 31 962.95 31 962.35 C31 960.65 39.5 953.35 42.3 952.75 C43.8 952.35 45 951.75 45
							 951.25 C45 949.95 39.8 946.35 37.8 946.35 C36.7 946.35 33 949.05 29.5 952.45 C24.4 957.35 22.3 958.65
							 19.1 959.05 C16.6 959.35 15 959.25 15 958.65 C15 955.45 18.5 950.15 22.2 947.55 C28.2 943.35 31.4 939.75
							 30.6 937.85 C29.8 935.75 22.3 932.35 18.4 932.35 C14.6 932.35 8.9 935.95 7.2 939.65 C6.5 941.15 5.5
							 942.35 5.1 942.35 C4.2 942.35 0 933.25 0 931.45 C0 929.45 4.7 927.35 12.9 925.85 C22.4 924.05 26 924.75
							 32.1 929.45 L35.7 932.25 L39.9 927.85 C44.2 923.25 46.6 922.35 48.8 924.55 C50.9 926.65 50.1 929.65
							 46.4 933.45 C43.5 936.45 43 937.45 43.8 938.95 C44.6 940.45 46.1 940.85 51 940.85 C55.9 940.85 57.4
							 941.25 58.6 942.75 C60.8 945.85 60.3 948.95 57.3 950.85 C55.9 951.85 51.2 956.15 47 960.45 C38.8 969.05
							 36.7 969.85 33.2 965.85 Z" class="st1"/>
			</g>
			<g id="shape21-38" v:mID="21" v:groupContext="shape" transform="translate(161.3,1194.3) scale(1,-1)">
				<title>Sheet.21</title>
				<path d="M14.2 968.25 C9.6 967.25 8.5 966.55 4.5 961.45 C2 958.25 0 954.85 0 953.85 C0 947.35 12.2 941.75 16.2 946.45
							 C19.1 949.85 19.1 950.65 16.3 953.25 L13.5 955.95 L18.3 955.35 C23.1 954.85 23.2 954.95 24.6 958.25
							 C26.3 962.35 26.4 966.85 24.8 968.45 C23.4 969.85 21.5 969.85 14.2 968.25 Z" class="st1"/>
			</g>
			<g id="shape22-40" v:mID="22" v:groupContext="shape" transform="translate(849,1437.7) scale(1,-1)">
				<title>Sheet.22</title>
				<path d="M4.9 959.35 C3.8 944.55 3.8 943.75 5.1 943.25 C5.8 943.05 6.3 943.75 6.3 944.75 C6.3 949.85 11.8 950.35
							 18.9 945.95 C21.6 944.25 24 942.45 24.3 942.15 C24.6 941.75 26.4 940.35 28.3 939.05 C30.2 937.65 32.7
							 935.85 33.7 934.85 C34.8 933.85 36 933.05 36.5 933.05 C38.9 933.05 36.5 931.05 30.6 927.85 C7.1 915.45
							 8.1 915.75 6.3 918.95 C5.8 920.05 5.3 921.85 5.3 922.95 C5.3 925.75 3.5 925.65 2.9 922.85 C2.6 921.55
							 2.1 916.55 1.8 911.55 C1.5 906.65 1 901.05 0.7 899.35 C0 895.45 1.9 894.75 3.2 898.35 C4.6 902.05 8.9
							 905.05 26.3 914.95 L42.4 924.05 L53.5 922.85 C65.8 921.55 68.4 920.25 67.6 915.75 C67.3 914.45 67.6
							 912.95 68.2 912.65 C68.8 912.25 69.3 912.25 69.4 912.75 C69.4 913.15 70 919.75 70.6 927.35 C71.8 940.85
							 71.3 945.05 69.3 939.35 C67 932.75 65.9 932.45 50.8 933.55 L41.8 934.25 L28.2 944.35 C13.4 955.35 9.6
							 959.15 8.7 963.95 C7.5 969.85 5.5 967.45 4.9 959.35 Z" class="st1"/>
			</g>
			<g id="shape23-42" v:mID="23" v:groupContext="shape" transform="translate(39,1442.5) scale(1,-1)">
				<title>Sheet.23</title>
				<path d="M50.3 968.85 C50.3 968.25 51.6 967.55 53.2 967.25 C54.7 966.95 57.3 965.65 58.8 964.45 C61.3 962.45 61.6
							 961.45 62.1 954.55 C62.6 946.95 62.5 946.85 60.2 946.85 C58.9 946.85 49.7 946.15 39.8 945.35 C17.7 943.55
							 5.1 943.45 3.5 945.05 C2.8 945.75 2.3 947.45 2.3 948.95 C2.3 950.45 1.9 952.05 1.3 952.35 C0.1 953.05
							 0 940.15 1 929.55 C1.7 921.85 3.5 920.95 4.3 927.95 L4.8 932.35 L9.8 932.95 C12.6 933.35 22.5 934.15
							 31.8 934.85 C41.2 935.45 52 936.35 55.8 936.85 C59.7 937.25 62.9 937.55 63 937.45 C63.1 937.35 63.5
							 934.15 63.8 930.25 C64.6 920.75 62.8 917.85 54.9 915.35 C53.5 914.95 53.3 914.45 54.1 913.65 C54.9 912.85
							 57.2 912.85 62.3 913.65 C66.3 914.25 69.6 914.85 69.8 915.05 C70 915.25 69.8 920.35 69.3 926.35 C68.8
							 932.45 67.9 944.65 67.2 953.65 L66 969.85 L58.1 969.85 C53.5 969.85 50.3 969.45 50.3 968.85 Z"
						class="st1"/>
			</g>
			<g id="shape24-44" v:mID="24" v:groupContext="shape" transform="translate(50.4,1522.5) scale(1,-1)">
				<title>Sheet.24</title>
				<path d="M24.9 967.95 C17.3 965.05 14.5 963.15 10.1 958.45 C5.4 953.35 3.5 949.35 1.8 940.95 C0 931.65 3.2 920.85
							 10.1 913.35 C17.6 905.05 33.4 900.85 44.1 904.25 C56.8 908.25 65.2 914.65 69 923.05 C72.3 930.65 72.3
							 943.25 69 950.65 C66.2 956.95 59.5 963.25 51.6 967.15 C46.8 969.45 44.9 969.85 37.7 969.75 C32.4 969.65
							 27.8 969.05 24.9 967.95 ZM58.7 956.45 C60.4 955.55 62.9 952.95 64.2 950.55 C71.5 937.95 67.5 927.75
							 52.5 920.35 C31.5 909.95 12.2 912.35 7 926.15 C5.5 930.15 5.6 938.45 7.3 941.65 C11.3 949.15 22.5 956.05
							 33.5 957.85 C41.9 959.15 54.9 958.45 58.7 956.45 Z" class="st1"/>
			</g>
			<g id="shape25-46" v:mID="25" v:groupContext="shape" transform="translate(830.8,1526.6) scale(1,-1)">
				<title>Sheet.25</title>
				<path d="M13.7 966.75 C13.1 964.95 10.8 956.45 8.5 947.95 C6.1 939.45 3.2 928.85 2 924.45 C0.7 920.05 0 916.15 0.4
							 915.75 C1.7 914.35 13.9 910.95 14.7 911.75 C15.2 912.25 13.8 913.85 11.5 915.45 C7.7 918.05 7.5 918.45
							 7.5 923.35 C7.5 926.15 8 930.15 8.6 932.35 C9.8 936.75 9.7 936.75 23.5 932.95 C27.6 931.75 36 929.55
							 42 927.95 C66.3 921.55 66.5 921.45 66.5 915.45 C66.5 910.95 67.9 909.35 68.9 912.75 C70.5 918.05 74.5
							 936.25 74.5 937.95 C74.5 939.15 74.1 939.75 73.5 939.45 C73 939.15 72.5 938.05 72.5 937.05 C72.5 933.05
							 67.3 930.85 62.3 932.85 C61 933.35 56.2 934.75 51.5 935.95 C46.8 937.15 40.1 938.95 36.5 939.95 C32.9
							 940.95 26.2 942.75 21.5 943.95 C16.8 945.25 12.9 946.35 12.7 946.55 C12.5 946.65 13.3 949.95 14.5 953.85
							 C16.8 961.75 19.3 963.95 26 963.95 C27.9 963.95 29.5 964.35 29.5 964.95 C29.5 965.75 27.4 966.55 16.3
							 969.55 C15.2 969.85 14.4 969.05 13.7 966.75 Z" class="st1"/>
			</g>
			<g id="shape26-48" v:mID="26" v:groupContext="shape" transform="translate(74.7,1590.4) scale(1,-1)">
				<title>Sheet.26</title>
				<path d="M58.6 964.05 C59.4 960.85 58.6 953.35 57.4 952.25 C57.3 952.15 47.1 946.95 34.9 940.85 C10.6 928.75 6.5
							 927.55 4.4 932.25 C3.4 934.55 0 935.95 0.8 933.85 C2 930.45 11.3 913.75 11.9 913.75 C12.4 913.75 12.4
							 915.75 12.1 918.15 C11.5 922.15 11.6 922.65 14.3 924.45 C16.8 926.25 47.7 942.25 51.7 943.95 C53.6 944.75
							 53.7 944.75 41.6 917.25 C29.1 888.65 26.3 881.75 27 881.05 C27.4 880.65 40 886.45 54.9 894.05 C71 902.15
							 83.2 907.75 84.9 907.75 C86.9 907.75 88.2 906.95 89.4 904.75 C90.9 902.15 92.6 900.75 92.6 902.25 C92.6
							 902.55 90.3 907.25 87.6 912.75 C82.6 922.75 79.8 925.85 81.9 919.25 C82.8 916.15 82.7 915.45 80.7 913.35
							 C78.2 910.75 43.8 893.25 42.9 894.15 C42.6 894.45 48.1 907.55 55.1 923.35 L67.8 952.05 L63.8 959.65
							 C59.2 968.25 57.3 969.85 58.6 964.05 Z" class="st1"/>
			</g>
			<g id="shape27-50" v:mID="27" v:groupContext="shape" transform="translate(810.3,1597.5) scale(1,-1)">
				<title>Sheet.27</title>
				<path d="M5.8 957.35 C2.4 950.45 0 944.55 0.5 944.05 C0.9 943.65 1.5 943.95 1.8 944.75 C2.4 946.55 7.1 951.05 7.9
							 950.55 C8.2 950.45 19.7 944.75 33.3 937.95 C60 924.75 61.2 923.75 59.2 917.95 C58.6 916.15 58.5 914.65
							 59 914.35 C59.5 914.05 62 917.75 64.4 922.65 C66.9 927.55 69.8 933.25 71 935.25 C73.7 940.05 72.6 941.75
							 69.3 937.85 C67.8 936.05 65.9 934.85 64.3 934.85 C62.2 934.85 23.8 953.75 16.3 958.45 C11.8 961.45 11.4
							 962.65 13.6 968.25 C13.9 969.15 13.7 969.85 13.1 969.85 C12.4 969.85 9.2 964.25 5.8 957.35 Z"
						class="st1"/>
			</g>
			<g id="shape28-52" v:mID="28" v:groupContext="shape" transform="translate(779,1647.5) scale(1,-1)">
				<title>Sheet.28</title>
				<path d="M15.8 967.05 C16.3 964.45 15.8 963.75 10.9 960.05 C3.6 954.55 0.2 948.75 0.2 941.55 C0 929.75 8.6 922.35
							 20.3 924.25 C23.9 924.85 30.4 927.45 41.8 932.95 C47.3 935.65 53.1 936.85 55.7 935.85 C62.8 933.05 64.6
							 924.75 59.6 917.55 C56.6 913.25 49 908.85 44.6 908.85 C43.1 908.85 39.6 909.55 37 910.35 C34.3 911.15
							 32.3 911.45 32.5 910.95 C33.1 909.25 50.5 896.85 51.4 897.45 C52 897.85 52 898.55 51.3 899.35 C49.4
							 901.65 51.1 904.55 57.1 909.05 C67.5 917.05 71.2 929.15 66 938.25 C59.7 949.35 50 949.85 29.9 940.25
							 C23.3 937.05 18.4 935.35 14.8 935.05 C10 934.65 9.4 934.85 7.4 937.45 C5.5 939.85 5.2 941.15 5.7 945.25
							 C6.3 950.95 8.7 953.85 15 956.95 C19.9 959.35 24.9 959.15 30.4 956.45 C34.3 954.55 34 954.55 34.6 956.25
							 C35 957.25 32.1 959.65 25.9 963.75 C20.9 967.15 16.3 969.85 15.9 969.85 C15.5 969.85 15.4 968.55 15.8
							 967.05 Z" class="st1"/>
			</g>
			<g id="shape29-54" v:mID="29" v:groupContext="shape" transform="translate(137.9,1681.8) scale(1,-1)">
				<title>Sheet.29</title>
				<path d="M28.4 968.05 C17 964.75 7.5 956.95 3.2 947.45 C0 940.35 0.1 926.35 3.3 920.15 C8 911.15 17 901.85 24.7 897.75
							 L30.2 894.95 L33 897.45 C43.8 906.75 50.9 912.15 52.6 912.15 C53.6 912.15 55.6 911.45 57 910.55 C61.6
							 907.45 60.6 909.95 53.7 918.35 C43.8 930.45 43.5 930.65 42.4 929.55 C41.6 928.75 41.8 928.05 42.9 927.15
							 C43.7 926.45 44.4 924.65 44.4 923.15 C44.4 920.85 42.6 918.75 35.4 912.25 C30.4 907.75 25.8 904.15 25.1
							 904.15 C24.5 904.15 21.3 905.85 18.2 907.85 C11.1 912.45 8.9 917.15 8.9 927.65 C9 936.15 11.2 941.55
							 17.7 948.75 C24.4 956.15 33.6 960.55 43.3 960.95 C50.5 961.35 51.2 961.15 55.9 957.95 C59.2 955.75 61.8
							 952.95 63.6 949.65 C67.6 942.25 67.8 939.25 65 931.15 C63.7 927.35 62.9 923.95 63.3 923.65 C64.3 923.05
							 79.6 938.55 78.8 939.45 C78.5 939.75 76.9 939.75 75.3 939.45 C73.1 939.05 72.3 939.35 71.8 940.75 C68.2
							 951.75 60.3 961.55 51.9 965.65 C45.9 968.65 34.3 969.85 28.4 968.05 Z" class="st1"/>
			</g>
			<g id="shape30-56" v:mID="30" v:groupContext="shape" transform="translate(713.6,1712.5) scale(1,-1)">
				<title>Sheet.30</title>
				<path d="M26.7 964.85 C17.8 958.15 0 941.25 0.9 940.35 C1.3 939.95 2.8 940.55 4.3 941.75 C5.8 942.85 7.7 943.85 8.7
							 943.85 C9.6 943.85 19.2 934.65 30 923.45 C50.7 901.95 52 900.05 48.1 895.75 C47.2 894.75 46.7 893.45
							 46.9 892.85 C47 892.35 51.9 896.55 57.7 902.35 C63.4 908.05 67.8 913.05 67.5 913.45 C67.1 913.75 65.8
							 913.15 64.6 911.95 C60.7 908.35 58.6 909.25 48.9 919.05 L39.8 928.25 L42.3 930.55 C43.9 931.95 45.6
							 932.65 47 932.45 C48.2 932.15 52.1 931.55 55.7 930.95 C59.3 930.35 66.4 929.25 71.6 928.35 C76.8 927.55
							 81.5 926.85 82.1 926.85 C83.8 926.95 96.3 938.65 95.5 939.45 C95.1 939.85 92.4 939.15 89.6 937.85 C86.1
							 936.35 83.1 935.85 80.3 936.05 C76.6 936.45 58.3 939.35 53.1 940.45 L51 940.85 L53.4 945.55 C59.2 956.95
							 51.3 969.85 38.5 969.85 C33.7 969.85 32.6 969.35 26.7 964.85 ZM38.5 959.45 C44 956.65 46.1 953.25 46.1
							 947.45 C46.2 942.95 45.7 941.25 43.2 937.75 C37.8 930.25 37.5 930.25 28.5 939.85 C18.4 950.65 18.2 950.95
							 20.9 954.35 C25.6 960.35 32.8 962.45 38.5 959.45 Z" class="st1"/>
			</g>
			<g id="shape31-58" v:mID="31" v:groupContext="shape" transform="translate(193.5,1736.5) scale(1,-1)">
				<title>Sheet.31</title>
				<path d="M46.8 969.05 C46.8 968.55 47.7 967.35 48.8 966.35 C52.9 962.65 51.6 960.45 33.5 937.85 C19.9 920.95 15.6
							 916.25 13.5 916.05 C10.9 915.75 10.9 915.75 11.5 921.25 C12.2 927.55 11 929.85 7 929.85 C2.3 929.85
							 0 922.75 3.3 918.15 C7.8 911.75 16.9 910.05 24.2 914.35 C29.5 917.45 36.8 925.55 58.4 952.15 C60.1 954.25
							 63.6 954.35 66.2 952.35 C68.6 950.55 69.8 950.45 69.7 952.15 C69.7 953.25 50.1 968.85 47.8 969.65 C47.2
							 969.85 46.8 969.55 46.8 969.05 Z" class="st1"/>
			</g>
			<g id="shape32-60" v:mID="32" v:groupContext="shape" transform="translate(652.1,1753.5) scale(1,-1)">
				<title>Sheet.32</title>
				<path d="M21.7 955.95 C9.1 947.65 0.6 941.45 0.3 940.35 C0 938.55 0.1 938.55 2.6 940.15 C5.6 942.15 8.6 942.35 10
							 940.65 C10.5 939.95 17.8 929.05 26.1 916.55 C42.3 891.95 42.2 892.25 37 887.75 C35 885.95 34.7 884.85
							 36.1 884.85 C36.6 884.85 44.8 889.85 54.4 895.95 C63.9 902.15 73.6 908.35 75.9 909.75 C78.6 911.35 80
							 912.85 79.8 913.85 C76.3 926.05 74.9 929.85 74.1 929.35 C73.6 928.95 73.2 925.85 73.2 922.25 C73.2 916.35
							 72.9 915.55 70 912.45 C65.9 908.25 53.5 899.85 51.3 899.85 C50.4 899.85 46.6 904.45 42.2 910.95 L34.8
							 922.05 L37.7 924.55 C48.1 932.85 54.1 934.85 57.7 930.85 C59.6 928.65 61.2 928.25 61.2 929.85 C61.2
							 930.35 58.7 934.85 55.6 939.85 C50.2 948.45 47.2 951.35 48.6 946.65 C50.2 941.05 50.2 939.25 48.5 937.35
							 C45.5 933.95 32.7 925.95 31.8 926.95 C30.6 928.45 19 946.15 18.6 947.25 C18.1 948.55 34.6 959.75 39.1
							 961.05 C41.5 961.75 46.1 960.05 49.5 957.05 C52.6 954.35 51.4 957.75 47.1 963.95 C44.8 967.15 42.9 969.85
							 42.8 969.75 C42.7 969.75 33.3 963.55 21.7 955.95 Z" class="st1"/>
			</g>
			<g id="shape33-62" v:mID="33" v:groupContext="shape" transform="translate(245.3,1764.5) scale(1,-1)">
				<title>Sheet.33</title>
				<path d="M34.8 967.25 C38.5 964.35 38.7 962.25 36.2 957.05 C33.7 951.95 12.1 915.75 10.1 913.55 C8.6 911.75 5.7 911.65
							 1.8 913.35 C0.8 913.75 0 913.65 0 913.15 C0 912.25 22.5 897.85 24 897.85 C26 897.85 24.9 900.55 22 902.65
							 C20.4 903.95 19 905.45 19 906.15 C19 906.95 22.4 913.35 26.6 920.45 C50.5 960.95 47.9 957.15 51.4 956.55
							 C53.1 956.25 55.3 955.75 56.3 955.35 C57.2 954.95 58 955.05 58 955.65 C58 956.85 35.3 969.85 33.1 969.85
							 C32 969.85 32.6 968.95 34.8 967.25 Z" class="st1"/>
			</g>
			<g id="shape34-64" v:mID="34" v:groupContext="shape" transform="translate(574.3,1789.1) scale(1,-1)">
				<title>Sheet.34</title>
				<path d="M56.2 966.15 C51.1 964.45 47.1 962.55 47.3 961.95 C47.5 961.45 49.4 960.75 51.6 960.45 L55.5 959.95 L55.3
							 939.95 C55.1 928.95 54.7 917.45 54.4 914.45 L53.8 908.95 L51.3 911.95 C49.9 913.65 45.1 918.95 40.6
							 923.85 C36.2 928.75 32.1 933.25 31.5 933.85 C31 934.55 28.4 937.35 25.8 940.15 C20.2 946.15 19.5 949.85
							 23.5 951.65 C26.1 952.85 26.9 954.45 24.8 954.45 C22.6 954.45 0 946.05 0 945.25 C0 944.85 2 944.45 4.4
							 944.45 C7.6 944.45 9.3 943.95 10.2 942.55 C10.9 941.55 15.8 936.05 21 930.45 C26.2 924.75 31 919.65
							 31.5 919.05 C47.3 901.25 56.2 892.25 57 893.05 C57.4 893.55 58.3 902.55 58.9 912.95 C61.6 957.75 62
							 961.75 63.5 964.15 C64.4 965.35 65.5 966.45 66 966.45 C66.6 966.45 67 967.15 67 967.95 C67 969.85 67.3
							 969.85 56.2 966.15 Z" class="st1"/>
			</g>
			<g id="shape35-66" v:mID="35" v:groupContext="shape" transform="translate(355,1804.2) scale(1,-1)">
				<title>Sheet.35</title>
				<path d="M3 968.85 C2.6 968.55 4.1 967.45 6.4 966.35 L10.5 964.55 L10.1 959.35 C9.9 956.45 7.8 946.85 5.4 938.05
							 C0.5 919.45 0 912.85 3 907.05 C5.7 901.85 8.5 899.35 15.2 895.95 C20.9 893.15 30.4 891.75 36.6 892.95
							 C41.4 893.85 48.6 900.45 50.6 905.75 C51.5 908.15 53.4 914.45 54.8 919.85 C56.2 925.15 58.4 933.95 59.8
							 939.35 C62.6 949.85 64.1 951.85 68.8 951.35 C70.5 951.15 71.9 951.45 72.1 951.95 C72.3 952.75 66.7 954.45
							 52.1 957.95 C50.4 958.35 49.3 958.15 49.3 957.55 C49.3 957.05 50.4 956.35 51.7 955.95 C53.1 955.65 54.9
							 954.55 55.8 953.55 C57.4 951.75 57.2 950.45 52.7 931.85 C47 907.75 44.9 902.55 40.1 900.25 C31.7 896.25
							 21.2 897.25 15.4 902.75 C10.8 907.05 10.2 909.25 11.3 918.25 C12.3 926.95 20.6 958.05 22.5 960.25 C23.3
							 961.25 25 961.55 27.5 961.35 C31.9 960.95 32.6 962.25 28.6 963.15 C27 963.55 21.1 965.05 15.4 966.65
							 C3.9 969.85 3.9 969.85 3 968.85 Z" class="st1"/>
			</g>
			<g id="shape36-68" v:mID="36" v:groupContext="shape" transform="translate(522.8,1814.7) scale(1,-1)">
				<title>Sheet.36</title>
				<path d="M29 968.55 C28.5 968.35 22.5 967.25 15.8 965.95 C3.6 963.75 0 962.05 7.4 962.05 C9.5 962.05 11.8 961.45
							 12.4 960.65 C13.4 959.55 15.2 951.15 22 915.75 C24.3 903.75 24.1 902.25 20 900.45 C15.8 898.75 15.3
							 896.65 19.3 897.45 C20.8 897.75 27.1 898.95 33.3 900.15 C44.5 902.35 47.8 904.05 40.8 904.05 C35.8 904.05
							 35.1 904.75 33.7 910.05 C32 916.55 24.5 958.35 24.5 961.35 C24.5 963.15 25.4 964.25 28 965.45 C32.2
							 967.45 33 969.85 29 968.55 Z" class="st1"/>
			</g>
			<g id="shape37-70" v:mID="37" v:groupContext="shape" transform="translate(438.5,1820.5) scale(1,-1)">
				<title>Sheet.37</title>
				<path d="M0.4 968.95 C0 968.35 0.8 967.45 2.5 966.75 C8.1 964.55 10.1 963.35 11.9 960.85 C13.5 958.55 13.6 956.45
							 12.8 933.55 C11.9 905.75 11.6 904.55 5.2 903.45 C3.2 903.05 1.9 902.35 2.4 901.85 C3.5 900.95 24.8 899.85
							 24.8 900.85 C24.8 901.15 23.3 902.05 21.4 902.65 C19.5 903.35 17.7 904.65 17.3 905.65 C16.4 908.15 17.9
							 951.85 18.9 951.25 C19.4 950.95 24.6 944.45 30.5 936.65 C62.6 894.75 60.7 897.05 61.7 898.75 C62.1 899.45
							 62.8 913.45 63.1 930.05 C63.8 963.45 63.8 963.15 70.5 964.45 C76.4 965.55 72.8 966.65 60.9 967.45 C51.5
							 967.95 49.6 967.85 50 966.75 C50.2 966.05 51.9 965.05 53.8 964.75 C55.6 964.35 57.4 963.45 57.9 962.65
							 C58.9 961.15 58.9 931.05 58 922.85 L57.3 917.35 L54.1 921.85 C52.3 924.35 50.5 926.85 50 927.35 C49.6
							 927.95 44.9 934.25 39.7 941.35 C19.5 969.05 19.7 968.85 16.2 968.85 C14.5 968.85 10.4 969.15 7.1 969.45
							 C3.1 969.85 0.8 969.75 0.4 968.95 Z" class="st1"/>
			</g>
		</g>
	</g>
</svg>
